v 0.500000 -0.500000 -0.500000
v 0.500000 -0.500000 0.500000
v -0.500000 -0.500000 0.500000
v -0.500000 -0.500000 -0.500000
v 0.500000 0.500000 -0.500000
v 0.500000 0.500000 0.500000
v -0.500000 0.500000 0.500000
v -0.500000 0.500000 -0.500000

vt 0.25 0.25
vt 0.25 0.50
vt 0.50 0.50
vt 0.50 0.25
vt 0.75 0.50
vt 0.75 0.25
vt 1.0 0.50
vt 1.0 0.25
vt 0.0 0.50
vt 0.0 0.25
vt 0.25 0.0
vt 0.50 0.0
vt 0.25 0.75
vt 0.50 0.75

vn 0.000000 0.000000 -1.000000
vn -1.000000 0.000000 0.000000
vn 0.000000 0.000000 1.000000
vn 0.000000 0.000000 1.000000
vn 1.000000 0.000000 0.000000
vn 1.000000 0.000000 0.000000
vn 0.000000 1.000000 0.000000
vn 0.000000 -1.000000 0.000000

f 5/1/1 1/2/1 4/3/1
f 5/1/1 4/3/1 8/4/1

f 3/5/2 7/6/2 8/4/2
f 3/5/2 8/4/2 4/3/2

f 2/7/3 6/8/3 3/5/3
f 6/8/4 7/6/4 3/5/4

f 1/2/5 5/1/5 2/9/5
f 5/1/6 6/10/6 2/9/6

f 5/1/7 8/4/7 6/11/7
f 8/4/7 7/12/7 6/11/7

f 1/2/8 2/13/8 3/14/8
f 1/2/8 3/14/8 4/3/8
